<?xml version="1.0" encoding="UTF-8"?>
<svg id="Layer_1" xmlns="http://www.w3.org/2000/svg" version="1.1" viewBox="0 0 841.89 595.28">
  <!-- Generator: Adobe Illustrator 29.2.1, SVG Export Plug-In . SVG Version: 2.1.0 Build 116)  -->
  <defs>
    <style>
      .st0 {
        fill: none;
        stroke: #808285;
        stroke-miterlimit: 10;
        stroke-width: 20px;
      }

      .st1 {
        fill: #fff;
      }

      .st2 {
        fill: #808285;
      }
    </style>
  </defs>
  <circle class="st0" cx="866.77" cy="-357.48" r="259.91"/>
  <path class="st2" d="M833.23-526.48h67.08v63.87h-67.08v-63.87ZM833.23-433.33h67.08v244.85h-67.08v-244.85Z"/>
  <circle class="st2" cx="437.81" cy="299.89" r="275.71"/>
  <g>
    <path class="st1" d="M309.93,480.11c-5.83,0-11.87-2.43-16.95-6.89-5.9-5.19-9.24-12.02-9.16-18.76l.88-80.13,5.56-6.03,220.68-251.43c3.91-4.45,9.87-6.49,16.34-5.61,4.95.67,9.96,3.05,14.1,6.69l72.19,63.51c9.92,8.73,12.1,21.93,4.95,30.05l-222.64,253.08-4.27,4.31-78.86,11.01c-.93.13-1.88.19-2.82.19ZM305.4,454.56c.35,1.43,3.04,3.8,4.5,3.96l71.34-9.96,219.41-249.4c-.29-.44-.72-.96-1.33-1.5l-72.19-63.51c-.61-.54-1.18-.9-1.65-1.13l-219.3,249.84-.79,71.69ZM305.39,454.5h0Z"/>
    <rect class="st1" x="511.71" y="151.73" width="21.58" height="113.27" transform="translate(19.64 460.46) rotate(-48.37)"/>
    <rect class="st1" x="330.93" y="357.19" width="21.58" height="121.44" transform="translate(-198.02 407.78) rotate(-49.65)"/>
  </g>
</svg>