<?xml version="1.0" encoding="UTF-8"?>
<svg id="Layer_1" xmlns="http://www.w3.org/2000/svg" version="1.1" viewBox="0 0 841.89 595.28">
  <!-- Generator: Adobe Illustrator 29.2.1, SVG Export Plug-In . SVG Version: 2.1.0 Build 116)  -->
  <defs>
    <style>
      .st0 {
        fill: none;
        stroke: #808285;
        stroke-miterlimit: 10;
        stroke-width: 20px;
      }

      .st1 {
        fill: #fff;
      }

      .st2 {
        fill: #fcb01a;
      }

      .st3 {
        fill: #808285;
      }

      .st4 {
        fill: #088944;
      }
    </style>
  </defs>
  <circle class="st0" cx="-461.53" cy="313.81" r="259.91"/>
  <path class="st3" d="M-495.08,144.81h67.08v63.87h-67.08v-63.87ZM-495.08,237.96h67.08v244.85h-67.08v-244.85Z"/>
  <circle class="st2" cx="440.05" cy="302.62" r="288.24"/>
  <g>
    <g>
      <g>
        <path class="st2" d="M-674.88,1102.06c.23-.23.46-.69.92-1.38.23-.46.46-.69.69-1.15.69-.46,1.15-1.15,1.61-1.61,0-.23.46-.69,1.15-1.61l1.61-.69.46-1.38c.23-.46.69-1.15,1.38-2.07l1.38-2.07.69-1.38c0-.23.46-.69,1.38-1.61.69-.69,1.15-1.38,1.61-2.07.23-.46.46-1.15.92-2.53l.69-2.76v-1.38c0-.92-.46-2.53-1.15-4.84-.92-1.84-1.61-3.46-2.07-4.61-.23-.46-1.38-1.84-3.46-3.69-.46-.23-1.15-.69-1.61-1.38-.92-.46-1.38-.92-1.84-1.38l-.46-.46c-5.07-2.3-9.21-3.69-12.67-3.92-3.69,0-6.22-.23-7.14-.23-2.99,0-5.53.46-7.83,1.38-2.53,1.15-4.38,2.07-5.76,2.76-1.15.69-2.3.92-3.69.92-.92,0-2.07-.23-2.99-.69-1.38-.46-1.84-1.61-1.84-3.46,0-2.3.69-4.15,2.53-5.53l4.38-3,6.68-3c2.76-.69,7.83-1.15,15.44-1.15.92,0,2.07.23,3.22.23.92.23,1.84.46,3,.69.92.46,2.07.69,2.99.69.92.23,1.61.23,2.07.23,2.76,0,5.76.92,8.98,2.3,3,1.61,5.99,3.46,8.75,5.76,1.15,1.15,2.76,2.76,4.84,5.07,1.84,2.3,3.23,4.61,4.15,6.45l.23.92c.23,1.15.69,2.3,1.15,3.23.23,1.15.46,2.3.46,3.46,0,3.22-.46,5.53-1.38,7.37-.92,1.84-1.84,3.46-2.53,4.38l-.46.69c-1.38,2.3-3.69,5.3-6.91,9.21-3.23,4.15-6.91,8.06-10.6,11.75,4.15.92,7.6,1.61,9.91,2.07,2.3.92,4.38,2.07,6.68,3.46,1.84,1.38,3.46,2.76,5.07,4.38,1.38,1.84,2.53,3.46,3.23,5.07.69,1.61,1.15,3,1.38,4.38v5.53c0,3.92-.92,7.14-2.3,9.91-1.61,3-2.76,5.07-3.69,6.22-1.15,2.07-2.07,3.46-2.53,4.38-.46.46-.69.69-.92,1.15-.46.46-.92,1.61-1.84,2.99-.46.46-.69.69-.92,1.15-.46.46-.92.92-1.38,1.15-.92.92-2.07,1.84-3.23,3-1.38,1.38-2.3,2.3-2.76,2.99l-1.61,2.07-3,2.76c-.92,1.15-1.84,2.07-2.76,2.99-1.15,1.15-2.3,2.07-3.46,2.76l-2.07,1.61-1.38.92c-.46.69-.92,1.38-1.84,2.3-.92,1.15-2.07,2.3-3,3.22-1.38,1.15-2.53,2.3-3.69,3.23-1.38,1.15-2.76,2.07-3.69,2.53l-.46.23c0,.23-.46.23-1.15.23-.46,0-.69,0-1.15-.23-.69,0-1.15,0-1.61-.46-.92-.46-1.61-1.15-2.3-2.07-.92-.69-1.15-2.07-1.15-3.92-.69.23-1.38.23-2.3.23-2.76,0-4.84-1.38-5.76-4.15-1.15-2.76-2.07-6.22-2.99-10.37l-1.15-5.07-2.76-7.37v-1.84c0-.46.23-1.38.46-2.76v-6.91l-.23-1.15.23-.92c-.46-.23-.69-.69-.69-1.38-.46-.46-.46-1.15-.46-2.3,0-.92.23-1.84.92-2.53-.69-1.38-1.15-2.53-1.15-3l1.15-1.61c-.23-.23-.46-.69-.46-1.15-.46-.23-.46-.46-.46-.92,0-.92.23-1.61.69-2.53.23-.46.46-1.15.46-2.07v-5.3c-.23-1.61-.23-3.46-.23-5.3-.23-1.61-.23-3.46-.23-5.76v-5.53c0-4.15.23-8.29.92-12.44.46-3.92,1.61-7.6,3-11.06,1.15-3.23,2.76-5.76,5.07-8.06,1.84-1.84,4.38-2.99,7.6-2.99,1.84,0,3.46,1.15,4.38,2.99.92,2.3,1.38,4.61,1.84,6.91v7.14c-.23,2.3-.23,3.69-.23,3.69.46,4.61.69,8.75.69,12.44l-.69,1.15c.69,1.61,1.15,3.22,1.15,4.84,0,2.99-.23,5.99-.69,8.99-.69,3.22-.92,5.3-.92,6.22,0,.23,0,.69.46,1.15l.46.92c0,.92-.23,1.61-.46,1.61-.46.23-.69.69-.69,1.38.23,2.76.46,5.53.69,8.52v9.22c0,.92-.23,1.38-.23,1.61-.23.46-.46.69-.69.92.46,2.07.69,5.3.92,9.68,0,4.61,0,9.45.23,14.97l5.99-5.07c2.3-1.84,5.3-4.61,8.99-8.06l3.69-3.69c1.15-1.38,2.53-2.76,3.92-4.15l3.46-4.15c.92-1.15,1.84-2.3,2.53-3.46v-.92c2.53-3.92,3.69-7.83,3.69-11.75-.23-1.61-.46-3.22-.46-4.84-.46-1.38-.92-2.3-1.61-2.99-2.76-2.3-5.07-3.69-7.37-4.61-2.53-.46-4.61-.92-6.45-.92l-4.15-.23c-2.3,0-3.92-.46-4.38-1.38-.69-.69-1.15-1.15-1.15-1.61-.69-.92-1.15-2.07-1.38-3.23-.46-.92-.23-2.07.69-3.46.23-.46.46-1.15.92-2.07l3.92-5.99Z"/>
        <path class="st2" d="M-591.34,1084.24c1.84,0,3,1.15,3,3.46v1.84l.23,2.76.92,1.38-.23.92c0,1.15,0,2.3.46,3.46.23.92.46,2.07.46,3,0,3.22-.46,5.76-.92,7.37-.46.92-.69,1.61-1.15,2.07-.46.92-.69,1.61-.69,2.53v.92l.23,1.15c-.23,1.38-.46,2.76-.69,3.92-.46,1.15-.69,2.3-.69,3.23-.46,1.15-.69,2.07-.69,2.76-1.38,5.99-2.53,10.6-3.22,14.05-.92,3.69-1.38,6.68-1.61,8.52-.23.92-.23,2.07-.23,2.99-.23,1.15-.46,2.3-.46,3.69-.46,1.84-.46,3.46-.46,4.84-.23,1.38-.46,2.99-.69,4.61v1.15c-.23.69-.23,1.15-.23,1.61-.23.69-.23,1.38-.23,1.84-.23.69-.23,1.15,0,1.61v18.89c0,.69,0,1.61.23,2.76,0,1.38,0,3,.23,4.38,0,1.84.23,3.46.69,5.07,0,1.84.23,3.23.46,4.61,0,1.38.23,2.3.46,2.99,0,.92.23,1.84.46,2.3,0,.69.23,1.38.46,1.84l.46.92c.46,1.38.92,2.53.92,3.92,0,.92-.23,1.84-.46,2.53l-1.15,2.3c-.92,1.15-1.15,1.84-1.15,2.3s-.23,1.15-.69,1.84c-.46.92-1.15,1.84-2.07,2.53-1.15.92-2.3,1.84-3.69,2.3-1.61.69-3.46.92-5.3.92-2.07,0-3.69-.69-5.07-2.3-1.38-1.38-2.53-3.23-3.22-5.3-.92-2.07-1.84-4.61-2.3-7.6-.23-.23-.23-.69-.23-1.38v-1.61l-.46-4.61v-1.84c-.46.46-.69.69-.69.92l-.92.92-1.61,1.84-2.3,2.07-1.15,1.15c-.46.46-.92,1.15-1.61,1.84-.46.46-.92.69-1.61.92-.92.46-1.84.92-2.53.92-.69.23-1.15.46-1.61.46-.46.23-1.15.23-1.84.23s-1.61-.23-2.99-.69c-1.15-.46-1.84-1.61-2.3-3.69-.23-1.38-.23-2.76.23-3.69l2.3-2.3,2.99-2.53c1.15-.92,2.53-2.3,4.15-4.15,1.38-1.38,2.3-3,3.22-4.38,1.84-2.76,3.23-5.3,4.38-7.6.92-1.84,1.61-3.69,2.3-5.53,0-.46.23-.92.69-1.84,0-.46,0-.92.23-1.61v-1.38c.23-3,.46-5.53.69-7.6,0-1.84,0-3.46.46-5.3l1.15-4.38v-2.3l.92-2.53-.46-2.53c.46-3.46.92-6.22,1.38-8.52.23-1.84.69-4.61,1.61-7.83l.92-3.69c.23-1.15.46-2.53.92-3.92.23-1.15.46-2.07.69-2.53,0-.92.23-1.84.46-3.22,0-1.15.46-2.3.92-3.46,0-.23.23-1.15.69-2.53.23-1.15.69-2.53,1.15-3.92.23-1.15.46-2.3.92-3.69.23-.92.46-1.84.92-2.53.69-.92,1.38-2.76,2.07-5.07.46-2.3.92-4.15,1.38-5.99,0-.46,0-1.15.46-1.84,0-.23.23-.46.23-.92,0-1.38.69-2.76,1.61-4.15.92-.92,1.84-2.07,2.76-3l2.53-2.76c.69-.23,1.38-.46,2.3-.92.69,0,1.38-.23,2.3-.23Z"/>
        <path class="st2" d="M-569.18,1220.72c2.53.69,5.3,1.15,8.52,1.38.23-.92.69-2.07,1.15-3.46.23-1.15.92-3.23,2.3-6.45.23-1.38.46-2.76.92-3.92.23-.92.46-2.3.92-3.92l3.46-8.98c.92-2.3,1.61-4.15,2.53-5.76l.92-.69c.23-.46.46-.92.92-1.38,0-.23.46-.69.92-1.38,0-.46.23-1.15,1.15-2.53.69-.92,1.61-2.3,2.76-3.69l3.22-3.92c.92-1.15,1.84-2.07,2.76-3l3.46-3.46c1.15-1.15,2.3-2.07,3.46-3,0,0,1.15-.46,3.22-1.15.46,0,.92-.23,1.84-.46.69,0,1.38-.23,1.84-.23s1.38.23,2.76.69l1.84.69c0,.23.23.23.46.23,0,.23.23.46.46.46l1.38,1.38c.46.46.69.92,1.15,1.15,0,.46.23.92.69,1.15.46.92.92,1.61,1.15,1.84l1.38,2.76c.46.92.69,2.07,1.15,3.46l.69,3c0,.46.23.92.46,1.38,0,.69,0,1.15.23,1.61v2.07l.23,1.84-.23,3-.23,2.53c-.23,1.84-.46,3.69-.92,5.53-.46,2.07-1.38,3.69-2.3,5.07-.46.46-.92.92-1.15,1.38-.46.46-.69.92-.69,1.15-.46,1.15-.69,1.84-.92,2.07-.46.46-.69.69-.92,1.15-.46.46-.69.69-.92,1.15-.46.69-.69,1.38-1.15,2.3l-3.92,3.92-1.38.92-.92.92c-.46.46-.69.92-1.15,1.15-.69.46-1.38.92-1.84,1.15l-1.61,2.07-1.38.92c-2.3,1.84-4.38,3.22-6.45,4.15-2.3,1.38-4.84,2.3-7.14,3.23v2.07c0,.92,0,1.84.23,2.53v6.68l1.61,6.22c.23,1.38.92,2.99,1.84,4.84.92,2.3,2.07,4.38,3.92,6.45.69.92,1.84,1.61,3.69,2.53,1.61.92,3.46,1.38,5.3,1.38,1.38,0,2.07,0,2.53-.23,1.15-.23,2.07,0,2.99.46.69.69,1.15,1.38,1.38,1.84v2.76c-.23,1.15-.46,1.84-.69,2.07-.46.46-.46.69-.46.92l-1.15,1.15c-.69.23-1.61.69-2.76,1.61-.46.23-.92.46-1.15.69-.46,0-1.15.23-2.53.69l-1.84.23c-.69,0-1.15.23-1.38.69-.46,0-.92.23-1.61.23h-1.84c-.69,0-1.15-.23-1.61-.46-.46,0-.69,0-.69.23-.46,0-.69.23-.92.23l-6.91-3.46-.23-.23c-.92.23-1.61.46-2.07.46l-4.15-4.15c-.92-.69-2.07-2.07-3.46-3.92-1.61-1.84-2.76-3.46-3.69-4.84,0-.69-.23-1.38-.23-2.07-.46-.46-.69-1.15-.92-1.61-.92-1.38-1.38-3-1.38-4.84l.46-2.07c-.69-.92-1.15-1.38-1.15-1.84v-3l-.23-2.99v-4.38c0-1.38,0-2.76.23-4.15h-6.45c-1.84,0-3,0-3.69-.23-.92,0-2.07-.46-3.46-1.38-1.15-.46-2.07-1.38-3-2.3-1.15-.92-1.61-2.07-1.61-3.46,0-1.61.23-3,.69-4.15.23-.92.92-1.84,2.3-2.76.46-.23,1.15-.46,1.84-.69.46,0,1.15-.23,2.53-.23.23,0,.92.23,1.84.23l2.76.69ZM-521.26,1190.54c0-2.53-.23-4.84-.69-7.14-.46-1.84-1.15-3.92-1.84-5.76-.46-.23-.69-.46-.69-.46-.92,0-1.61.46-2.3,1.38-1.15,1.38-2.3,2.53-3.22,3.92-1.38,1.61-2.3,2.76-2.76,3.69v.69c-.23.46-.23.69-.23.69-1.61,4.15-2.99,7.6-3.92,10.37-1.15,3.22-2.07,5.76-2.76,8.06-.92,2.3-1.38,4.61-1.84,6.45-.46,2.07-.92,3.92-1.15,5.76,1.61-.69,3.46-1.84,5.53-3.22,1.84-1.15,3.92-3,6.22-5.3l2.3-2.3c.69-.69,1.84-2.07,3.46-3.92,1.38-1.61,2.07-2.99,2.07-4.15l-.46-1.15c0-.23.46-1.15,1.38-2.53l.46-.92v-.92l.46-3.22Z"/>
        <path class="st2" d="M-462.74,1273.1l-1.38,10.37-.69,4.15c-.23,1.38-.23,2.53-.23,3.92-.23,1.38-.46,2.76-.46,3.92v2.07c-.23.92-.23,1.61-.23,2.07l-.69,2.3c0,.46.23.92.46,1.38,0,.69,0,1.15.23,1.61.23,1.15,0,2.07-.46,2.99-.92,1.15-1.38,2.07-1.61,2.53-.46.46-.46.92-.46,1.15,0,.46-.46.69-1.38.92-2.3.92-4.15,1.38-5.99,1.61-1.84.46-3.69.46-5.53.46-2.76,0-4.15-.46-4.61-1.84-.69-.92-.92-2.53-.92-4.38l.23-5.76,1.15-1.15v-2.3c-.23-.69-.23-1.38-.23-2.3l.92-1.38.23-5.07.46-3.46.92-3.22,1.15-11.06c.23-1.38.46-3,.69-4.84,0-1.61.23-3.69.69-6.22l.69-1.61-.23-3.92.69-7.14c0-1.84.23-3.69.46-5.99,0-2.07.23-3.92.46-5.53-2.07,2.07-3.69,3.92-4.61,5.3-1.38,1.61-2.3,3-3.23,4.15-.69.92-1.15,1.15-1.38,1.15-.46.23-.92.46-1.15.46-.92.46-1.38.46-1.84.46h-1.84l-2.99.23c-.69-.92-1.15-1.84-1.61-3-.46-.92-.69-1.84-.69-2.99,0-.46.23-1.15.69-2.3.46-.92.92-1.84,1.84-2.76,2.07-2.53,3.92-4.61,5.76-6.22,1.61-1.38,2.99-2.53,4.38-3.46.46-.23.92-.69,1.61-1.38l5.99-2.76c1.15-.23,2.53-.46,4.15-.46,1.38,0,2.53.23,3.46.46l1.61,1.61c.46.46,1.15.69,1.61.69.46.46.92,1.15,1.84,2.07.92,1.38,1.61,2.53,1.84,3.92,0,.46.23.69.46.92,0,.46.23,1.15.69,1.84l.92,2.53c0,1.38.23,2.76.23,4.15v10.37c0,1.84-.23,3.46-.23,5.3l-1.84,15.43ZM-418.73,1225.87l1.84,3.92c.23.92.46,1.61.69,2.07,0,.46.23.92.46,1.38,0,.92.23,2.3.23,3.69,0,1.61-.23,3.22-.23,5.07-.23,2.07-.46,4.15-.46,5.99-.46,2.07-.69,3.92-.69,5.76l-.46,3.69-1.15,3.46,1.38,3.23-1.61,2.3.46,1.15v2.07c-.23,1.38-.46,2.53-.69,3.92-.46,2.76-.69,5.76-.92,8.99-.46,3.22-.92,5.76-1.38,7.37l-.46,2.07-.23,1.15-.23,2.3-.46,2.07-.46,2.53-.23,3.92-2.53,5.07c-1.38.46-2.99.69-4.61.69-1.84.23-3.23.23-4.38,0-.46,0-1.15,0-1.84-.23h-1.84l-3.69-2.76-.23-5.99v-5.07l.46-5.53c0-.92,0-1.61.23-2.53,0-.69,0-1.61.23-2.53,0-.69,0-1.61.23-2.53,0-.92.23-2.07.69-3.23,0-.92.23-2.07.46-3.22.23-1.84.46-3.69.92-5.53,0-1.61.46-3.69.92-5.99.23-2.07.69-4.61,1.38-7.6.46-2.76.92-6.45,1.84-10.6l1.15-6.45-3.69,4.38-1.61,1.84c-1.61,1.84-2.76,3.46-3.69,4.61-1.15,1.38-2.07,2.3-2.53,3.22-.92.92-1.38,1.84-1.84,2.3-.69.92-1.15,1.61-1.61,2.53-1.61,2.53-3.69,3.46-6.22,2.53-.92-.23-1.61-.92-2.3-2.07-.92-.92-.92-2.76,0-5.99,0-.23.23-.69.23-1.38.23-1.38.92-3,1.84-4.38.23-.23.46-.69.92-1.15,0-.46.23-.69.69-1.15.46-.69.92-1.38,1.61-2.07.46-.46,1.15-1.15,2.07-2.53l1.38-1.84,2.07-2.3,2.76-2.76,2.76-3.23,3.46-3.46,3.69-1.61,1.84-1.38,1.38-.46c.69-.23,1.61-.46,2.53-.92.92,0,1.61-.23,2.07-.46l4.61.23,2.76,3.46Z"/>
        <path class="st2" d="M-316.25,1159.8c.72,2.29,1.44,4.59,2.16,6.42.49,2.07.76,4.83,1.26,8.28.02,1.15.02,1.84.26,2.3,0,.69.02,1.38.26,2.07l.49,2.07.27,3.22c0,.69.02,1.61.26,2.53.02,1.15.02,1.84.26,2.3,0,.46.02,1.15.25,1.61l.02,1.61-.39,5.07.5,2.99.03,2.3c-.22.92-.21,1.62-.2,2.31-.2,2.31-.17,4.61-.14,6.91.03,2.53-.16,5.07-.36,7.38,0,.46,0,.69.25,1.15l.02,1.15-.81,8.07c0,.46.02,1.15.25,1.61l.02,1.38-1.49,25.83c-.44,1.85-.42,3.23-.4,4.38.02,1.38-.2,2.54-.18,3.69-.21,1.15-.2,2.08-.19,3-.22.92-.44,1.85-.42,2.77-.2,2.08-.4,4.15-.6,6.46-.43,2.31-.63,4.39-.61,6.23-.45.93-.67,1.62-.89,2.09-.45.7-.67,1.39-.67,1.85-.45.93-.44,1.62-.43,2.08.02,1.84-.64,3.7-1.77,5.78-1.35,2.32-2.25,3.72-3.16,5.11l-5.71,3.53c-2.3.72-3.68.74-4.38.06-.93-.91-1.64-2.05-2.12-3.43l-1.44-3.9c-.47-.92-.49-1.84-.49-2.3,0-.23-.24-.69-.25-1.15-5.97,1.46-11.03,2.22-15.4,2.74-1.38.25-2.76.27-4.14.29-1.38.25-2.99.27-4.6.29-5.07.07-9.91-.33-14.53-1.42-5.08-.85-9.25-2.41-12.97-5.12-3.26-2.49-4.7-6.62-4.31-12.15.21-1.85.64-3.92,1.3-5.78.44-1.62.87-3.47,1.77-5.32.45-.93.9-1.39,1.82-1.87.69-.24,1.14-.94,1.58-2.09.45-.93,1.12-2.32,2.02-3.71.44-1.39,1.35-2.55,2.26-3.49.22-.46.45-.93.9-1.62.91-.93,1.36-1.86,1.81-2.33,0-.23.22-.69.67-1.16.45-.7.9-1.39,1.59-1.87l1.36-1.4,2.27-2.33,2.72-3.49c.45-.7,1.13-1.4,1.81-2.33l2.5-2.57,2.27-2.33.91-.47c.9-1.39,2.28-2.1,3.65-2.58,1.15-.25,2.3-.49,3.22-.5.92-.24,1.38-.48,1.61-.48,0,0,.46,0,1.15-.25.46,0,1.39.21,2.31.43.93.45,1.62.9,2.32,1.12,1.39.9,2.79,2.27,4.43,3.63,1.4,1.59,2.81,2.96,4.21,4.32.47.91.95,1.83,1.42,2.52.01.92.25,1.38.25,1.61,0,.69-.21,1.39-.43,2.08-.45.93-.67,1.39-1.13,1.63-.91.7-2.06.95-3.44.97-.46,0-.69,0-.69-.22l-1.15.02c-1.84.02-3.23-.42-4.17-1.33-.46-.22-.7-.45-.7-.68-.46,0-.69-.22-.93-.68-.46-.22-.7-.68-1.17-1.37-.7-.45-1.16-.91-1.63-.9-1.15.02-2.07.49-2.52.96l-.68.7c-.45.47-.68.7-.91.7l-1.82,1.87c-2.73,2.8-5.22,6.06-7.7,9.78-2.71,3.72-4.52,6.74-5.41,9.06l-1.79,3.71c-.45.7-.67,1.16-.67,1.39-.22.46-.45.93-.44,1.62-.45.93-.44,1.62.03,2.3.48,1.37.95,2.06,1.18,2.06,1.16.91,2.56,1.58,4.41,2.01,1.62.67,2.78,1.11,3.7,1.33,1.39.44,2.54.66,3.46.64.69.22,1.85.44,3.23.42l1.61-.02c.46,0,1.15.21,2.08.2,1.15.21,2.77.19,4.61.17,1.84-.02,3.46-.05,5.3-.3.92-.01,2.53-.03,4.37-.52,1.61-.25,3.45-.74,5.74-1.23-.06-4.15-.57-8.06-1.08-11.74l1.56-3.48-.11-8.29c0-.69-.02-1.38.44-1.85.22-.46.45-.93.67-1.85,0-.46.22-.92.21-1.85-.24-.46-.48-1.61-.5-2.99l.99-11.76c0-.46-.25-1.15-.26-2.07-.24-.69-.25-1.38-.26-2.07.43-2.31.86-4.85,1.28-7.62.43-2.31.62-5.08.81-8.31-.24-.46-.25-1.15-.25-1.61-.24-.46-.25-1.15.2-2.08.2-2.54.4-4.84.59-7.15-.02-1.84-.05-3.69.16-5.3-.03-2.3.17-4.61.36-7.38-.03-2.53.38-5.76.79-9.69,0-.69-.02-1.38.44-1.85l.67-1.39v-.69c-.24,0-.25-.46-.26-1.38-.02-1.15-.03-2.07.2-2.54,0-.23,0-.69.21-1.38,0,0,0-.23.22-.46v-.69s-.02-.69-.02-.69c-.23,0-.23-.23-.24-.69l-.02-1.61c-.03-2.3.64-4.16,2-5.33,0-.46.44-1.16,1.12-2.09l2.03-3.48c.45-.93,1.13-1.63,2.04-2.1.46-.24,1.15-.25,2.07-.03.46.22.92.22,1.38.21,0,0,.23.23.46.22l2.09,1.58Z"/>
        <path class="st2" d="M-279.67,1152.75c1.38-1.15,3.23-2.76,5.76-5.07,2.3-1.84,4.38-3.69,6.22-5.53l3.69-1.15c.23,0,1.15-.69,2.76-1.61,1.38-.69,2.53-1.38,3.68-2.3.92-.46,1.84-1.15,2.76-1.84.69-.46,1.38-1.15,2.3-1.61,1.84-.92,3.46-1.61,4.84-2.07.46-.23.92-.46,1.38-.92l.92-.92,2.07-.23,1.15-.23c.69,0,1.61.23,2.76.69.92.46,1.61,1.38,2.53,2.3.69,1.15,1.15,2.07,1.15,2.53,0,.92-.23,1.61-.46,2.07-.46.69-1.15,1.15-1.61,1.38-.92.46-1.38.92-1.84,1.15l-13.59,9.22c-1.61.92-2.76,1.38-3.22,1.38-.46.23-.46.46-.46.46l-.46.46-2.76,1.84c-.46.46-.69.69-.69.92-.46.46-.69.69-.92.69-.23.23-.46.46-.46.69-.46.46-.46.69-.46.69l-3,2.76c-.46.69-.69,1.15-.92,1.38-1.84,1.15-3.23,1.84-4.38,1.84-1.38.46-2.53.69-3.69.69s-2.07-.23-2.76-.92c-.92-.46-1.61-1.15-1.84-1.84-.46-.69-.92-1.61-1.15-2.76-.46-.92-.46-2.07,0-3.22l.69-.92ZM-254.33,1172.34c.69-.69,1.84-1.15,3.22-1.38,1.15,0,2.07,0,3,.46,1.38.92,2.3,1.61,3.22,2.53.46,1.15.92,2.07,1.38,2.76.23,1.61.46,2.76.46,3.46,0,.92-.23,1.84-.46,2.76-.46,2.76-.69,5.3-.46,7.6,0,2.53,0,5.07-.23,7.83-.46,1.61-.69,3.22-.92,5.07-.46,1.84-.23,3.69.46,5.3.46,2.53.46,4.84-.23,6.91-.46,1.38-.69,2.76-1.15,4.15-.46,1.84-.69,3.69-.46,5.53,0,1.15-.23,2.3-.46,3.23-.46,1.15-.69,2.3-.92,3.22-.23.46-.46.92-.46,1.84-.23.92-.46,1.84-.46,2.3-.23.92-.23,1.84-.23,2.76-.23,1.38,0,2.3.46,3-.46,1.84-1.15,2.99-1.84,3.69v4.38l-.92.92v5.76l-2.76,3.69v2.07l-2.76,2.53c-1.38,0-2.3,0-2.76.23-.92.46-1.61.69-2.53.92-1.15.23-2.3.23-3.22,0-.46,0-.69,0-.92-.23h-.92c-.46-1.61-1.15-4.38-1.61-8.29-.69-3.69-.92-7.6-.92-12.21,0-1.61,0-3.46.23-5.3,0-1.61,0-3.22.46-5.07.23-1.84.46-4.15.92-7.37.23-2.76.69-5.99,1.15-9.68.46-3.22.92-6.91,1.61-10.83.46-3.69.92-7.37,1.38-10.6l-8.29,5.53c-2.07,1.15-3.68,1.15-5.07,0-.92-.46-1.38-1.38-1.84-2.99-.46-1.38-.23-3,.92-4.38.92-1.38,1.84-2.3,2.76-3.22l11.75-8.99c.46-.46,1.15-.92,1.84-1.61.46-.46,1.15-.92,1.84-1.38l1.15-1.15c.23-.46.69-.92,1.15-1.84.46-.69,1.15-1.38,1.84-2.3l1.61-1.61Z"/>
        <path class="st2" d="M-183.43,1093.21l-1.61.92c-1.38,1.15-2.53,1.84-3,2.3-.69.46-1.38,1.38-2.07,2.3-.46.46-.69.92-.69.92-.23.46-.46.69-.69.92-.46.69-.69,1.15-.69,1.15l-.46.46c-1.84,4.15-2.53,8.29-2.53,12.44,0,2.76.23,5.3.69,8.06.46,2.76.69,5.07,1.15,6.91.23,1.61.69,3.22,1.15,4.61.23,1.84.92,3.69,1.84,5.99l2.99,8.99c.69,2.3,1.38,4.15,2.07,5.99.46,1.84.92,3.69,1.38,5.3.23,1.84.46,3.92.92,5.76,0,2.3.23,4.61.23,7.14v4.15c-.23,1.15-.46,2.3-.46,3.22-.23,1.15-.46,2.07-.46,2.53-.46,1.38-.92,2.76-1.38,3.92-.69,1.38-1.38,2.76-2.07,3.92-.69.69-1.15,1.15-1.15,1.84-.69.92-1.38,1.84-2.07,3.23-.92,1.15-1.61,2.3-2.3,3.22-.46.69-.69,1.61-.92,2.53-.46.92-1.15,1.61-1.61,2.3-.46.23-.92.69-1.38,1.61-.69.46-1.15,1.15-1.61,1.84-1.84,2.07-3.46,4.15-5.3,5.99-1.84,1.61-3.68,3.22-5.3,5.07l-2.07,1.84-3.22,1.84c-.69.23-1.38.46-2.07.92-.92.23-1.84.46-2.3.92-.46,0-.92,0-1.38.23-.69,0-1.38-.46-2.3-1.15-.23-.23-.46-.46-.92-.69-2.3-1.15-3.22-2.53-2.99-4.38.69-2.07,1.38-3.46,2.3-4.38.46-1.15,1.38-2.07,2.3-2.99l3.69-3.92,5.07-5.07c.23-.92.69-1.84,1.61-2.76.46-1.38.92-2.3,1.38-2.76.23-.46.69-.92,1.15-1.38.23-.69.46-1.15.92-1.38,1.15-1.84,2.07-3,2.53-3.92.69-1.38,1.38-3,2.3-5.07,0-.23.23-.69.46-1.15,0-.23,0-.92.46-2.3.46-1.84.69-3.69.69-5.76l.46-2.53c-.23-5.3-.92-9.91-1.84-14.05-1.15-3.69-1.84-6.22-2.3-7.6-.92-1.61-1.38-3.22-1.84-5.07-.69-1.38-1.38-3-1.84-4.84l-.69-1.15c-.46-.46-.92-1.38-1.38-2.3-.69-.92-.92-2.07-.92-3.92,0-.92-.46-2.07-.92-3.22-.92-1.15-1.15-2.3-1.15-3.22v-1.15c-.23-.23-.23-.92-.23-1.84-.46-.92-.69-2.3-.69-3.69,0-.69,0-1.38.23-2.3,0-.46.23-1.15.46-2.07,0-.69.23-1.38.23-2.3l-.23-2.07c0-.69.23-1.61.92-2.99,0-.46.23-1.15.46-2.07,0-.69.23-1.38.46-2.07.46-1.15.92-2.3,1.61-3.22.46-.69,1.38-1.61,2.3-2.53.46-1.15.92-2.07,1.61-2.76l1.84-1.84c.69-.92,1.61-2.07,2.53-3,.92-.92,2.07-1.84,3.92-2.76,1.38-.92,2.76-1.84,4.38-2.53,1.38-.46,2.99-1.15,4.38-1.84.46,0,1.15-.46,1.61-.92.46-.23,1.15-.46,2.07-.69.46,0,1.15-.23,1.84-.69.46-.23,1.15-.46,2.07-.69h1.61c.46.46.92.46,1.61.46.92,0,1.84.23,2.3.46.46.46.92,1.15,1.61,2.07v.92c0,.46,0,.69.23.92v.92c0,1.38-.46,2.07-1.15,2.53-.92.69-1.61,1.15-2.3,1.38l-5.53,2.07Z"/>
        <path class="st2" d="M-154.14,1122.02l-2.07-6.22.46-1.84c-.23-.23-.46-.69-.46-1.15-.23-.46-.46-.69-.46-1.15l-.46-1.84c0-.46-.23-1.15-.46-2.07-.23-.23-.23-.69-.23-1.15,0-.23-.23-.46-.23-.92-.23-.46-.23-.69-.23-1.15l-.23-2.07.23-1.61-.46-4.38.46-2.53c-.23-1.38-.46-2.53-.46-3.46-.23-.92-.46-1.61-.46-2.53-.46-1.38-.46-3-.46-4.61.23-.92.46-2.3.69-3.92,0-1.38.23-3.23.23-5.07v-3.92c-.23-1.38-.23-2.76-.23-4.15v-4.38c-.23-1.38-.23-2.76-.23-4.15v-12.44c0-.69,0-1.15.23-1.61,0,0-.23-.23-.23-.69-.46-.46-.69-1.61-.69-3.22v-2.76c0-.92,0-1.84.23-2.76,0-1.61.23-3.69.46-6.22,0-2.3.23-5.07.23-8.06,0-.69,0-1.15.23-1.15l.23-.46c.23-.23.46-.69.46-1.61-.46-.46-.92-1.15-.92-1.84-.23-.46-.23-1.15-.23-1.61,0-.92.23-1.61.69-2.07,0-.23.23-.46.46-.92v-1.38c-.46-.23-.69-.69-.92-1.15-.46-.23-.69-.46-.69-.69.46-.92.92-1.84,1.15-2.76,0-.69.23-1.38.46-2.3,0-.92.23-1.84.46-2.76,0-.92,0-1.61.46-2.53.23-2.07.92-4.15,2.07-5.99.92-1.61,2.53-2.76,5.07-3.69,1.84,0,3.46.69,4.61,1.61.92,1.38,2.07,2.99,2.99,4.84l1.38,1.61.92,5.07.69,4.15c0,1.61,0,2.76.23,3.69l.23,1.84c-.23,2.76-.23,5.3,0,7.6,0,2.53.23,5.07.69,7.37l.69,6.91c0,2.53.23,5.07.23,7.6l.69,4.15c0,1.38,0,2.53.23,3l-.69,1.61.69,1.84-.23,2.53.46,3.46v2.07c0,.92-.23,1.61-.23,2.07-.23.92-.46,1.84-.46,2.76-.46.92-.46,1.84,0,2.53l.23,4.38-.46,2.53v1.15c0,.69,0,1.61.23,2.53,0,1.38.23,2.99.23,4.61,0,1.84,0,3.69.23,5.07l-.23,6.22.23,8.06.23,2.53c0,.92-.46,1.84-.92,2.76,0,1.15,0,1.84.46,2.3v5.3c0,1.15-.23,2.3-.46,3.46-.23.69-.23,1.38-.23,2.07,0,.92-.23,1.84-.46,2.3-.46.92-.92,1.61-1.15,2.07l-1.84,2.53c-2.53,1.15-4.84,1.61-7.14,1.61-1.38,0-2.76-.46-3.92-1.84l-2.3-3ZM-94.94,1044.38l2.07,3.23c.23.69.46,1.15.69,1.15.23.46.46.69.92.92,0,.46.23.92.69,1.38.46.92.69,2.3,1.15,4.15.23,1.84.46,3.92.92,5.76,0,2.3.23,4.38.46,6.22,0,2.3.23,3.92.23,5.3l.23,4.61.46,1.38-.23,1.84.23,1.61v4.15c-.23,1.84-.46,3.23-.46,4.61-.23,1.84-.46,3.46-.46,5.07-.23,1.84-.23,3.92-.23,5.76,0,.46-.23.69-.23,1.15-.23.46-.46.92-.46,1.38v1.15l.46,1.15-.23,1.84-.69,2.53v2.53c-.92.69-1.84,1.15-2.53,1.38-.92.46-1.61.92-2.07,1.38-1.84,1.15-3.46,2.07-4.84,2.76-1.61.92-3.69,1.38-5.99,1.38-1.38,0-2.53-.23-3.46-.69-1.15-.23-1.61-1.61-1.61-3.92,0-.23,0-.69.23-1.38v-1.61c0-.46.23-1.15.23-2.07-.23-.46-.46-.92-.46-1.84-.46-.69-.69-1.38-.69-1.84,0-.92.23-1.84.46-2.76,0-.69.23-1.61.23-2.53v-7.83l.69-4.61c0-.46,0-.69.23-1.15v-5.3c0-.92.23-2.07.46-2.99,0-.69.23-1.61.46-2.53,0-.69,0-1.38.23-2.07v-2.3c-.23-.46-.23-1.15-.23-2.07v-8.99c-.23-2.07-.46-3.92-.92-5.53-1.38.92-2.3,1.84-2.76,2.53-.69.92-1.15,1.61-1.38,1.84h-.46l-2.07,2.07c-.69.92-1.38,1.84-2.07,3-1.15,1.61-2.07,3-3,4.15-1.15,1.38-2.3,3.22-3.69,5.3-1.38,2.07-3.22,3-5.3,3-.92,0-2.07-.46-3-1.84-1.15-1.15-1.61-3.22-1.15-6.22.23-2.53,1.15-5.07,3-7.37,1.38-2.3,2.99-4.38,4.61-6.22l2.3-2.07,2.53-2.53,3.22-2.99,3.46-2.76,4.38-1.61,2.76-1.38c2.3-.69,4.15-.69,5.99-.23l2.3.69,4.38.92Z"/>
      </g>
      <path class="st2" d="M-768.03,1083.08c1.31,40.92,11.81,82.19,28.52,119.43,34.5,76.89,99.22,133.74,178.58,161.39,59.13,20.61,124.15,27.04,186.45,23.07,54.01-3.44,107.21-17.69,154.42-44.44,76.91-43.59,131.87-116.55,167.5-196.21,13.48-30.14,24.39-61.4,33.15-93.23,3.02-10.96,5.8-21.99,8.4-33.06.85-3.62,1.67-7.25,2.53-10.87.29-1.23.57-2.47.89-3.7.69-2.72-.65,1.45.33-1.19.65-1.76.14-1.35.39-1.1-.14-.14,2.39-19.54,2.39-21.69,0-5.23,1.71-17.53-2.39-21.69-.66-.67-3.37,9.19-3.43,9.43-1.88,7.7-3.58,15.45-5.47,23.15-6.66,27.1-14.86,53.83-24.77,79.92-29.46,77.55-74.89,151.06-141.62,201.84-91.55,69.68-211.83,82.6-322.47,61.37-89.47-17.17-170.91-64.66-217.86-144.32-14.92-25.31-26.29-52.86-33.63-81.31-2.56-9.94-4.56-20.01-6.15-30.14-.29-1.87-.36-2.58-.04-.22-.13-.99-.28-1.97-.39-2.96-.19-1.63-.38-3.25-.57-4.88-.14-1.24-.23-2.48-.36-3.73.47,4.3.28,3.64.11,1.02-.3-4.63.11,2.92.1,2.58-.05-1.51-.56-17.49-2.93-15.15-3.79,3.73-1.81,22.24-1.67,26.68h0Z"/>
      <path class="st2" d="M-371.34,1085.6c27.53-34.63,55.06-69.26,82.59-103.89,10.16-12.78,23.75-25.78,31.82-40.03,4.62-8.15,4.94-25.99-2.35-32.57-8.05-7.27-19.43-13.07-28.68-18.74-6.98-4.28-11.94-3.04-15.87,3.85-3.98,6.97-7.39,14.33-11.07,21.46-12.75,24.72-25.5,49.44-38.25,74.16-10.26,19.9-20.52,39.79-30.79,59.69-.47.91-1.47,4.15-2.39,4.63-.72.38-5-.98-6.47-1.12-5.21-.48-10.76.76-15.64,2.49-20.27,7.18-36.05,26.27-43.54,45.92-6.55,17.2-8.46,40.19-2.94,57.96,6.29,20.23,26.25,25.94,44.76,18.15,22.07-9.28,38.44-32.06,43.83-54.91,4.19-17.77,5.33-42.09-5.02-57.97-.88-1.34-1.44,6.98-1.47,7.57-.13,3.3-1.13,10.33.83,13.34,6.82,10.46,5.33,18.54.53,29.61-5.01,11.57-12.61,22.13-22.23,30.3-12.24,10.39-31.07,19.1-46.73,10.89-25.05-13.13-9.59-43.41,4.07-59.19,12.19-14.09,30.89-25.95,50.15-21.42l.32-.39c13.47-26.12,26.95-52.24,40.42-78.36,9.56-18.53,19.11-37.05,28.67-55.58,4.66-9.03,8.58-20.81,14.87-28.84,6.58-8.39,15.48.44,21.98,4.69,6.92,4.52,20.81,10.05,23.98,18.4-.28-4.45-.56-8.89-.83-13.34.18-4.23-4.8,3.43-5.37,4.15-4.13,5.19-8.25,10.38-12.38,15.58-13.15,16.54-26.3,33.08-39.45,49.63-19.33,24.32-38.67,48.64-58,72.97-3.41,4.29,1.82,19.42.63,20.91Z"/>
    </g>
    <path class="st4" d="M-484.92,1042.79c-22.12-69.1-113.54-61.44-113.54-61.44,24.89.49,25.29,55.68,60.66,102.51,6.38,8.45,25.07,15.69,39.46,12.19-5.44-34.98-63.88-99.54-63.88-99.54,0,0,66.19,54.85,72.57,95.53,9.24-6.86,13.54-21.69,4.72-49.25Z"/>
  </g>
  <path class="st1" d="M485.82,383.94c44.07-18.04,75.12-61.35,75.12-111.91,0-66.76-54.12-120.89-120.89-120.89s-120.89,54.12-120.89,120.89c0,50.56,31.05,93.87,75.12,111.91-63.99,20.69-111.52,83.66-115.84,159.51,0,0,49.27,49.17,160.62,52.31s162.6-52.31,162.6-52.31c-4.32-75.85-51.84-138.82-115.84-159.51Z"/>
</svg>