<svg width="36" height="32" viewBox="0 0 36 32" fill="none" xmlns="http://www.w3.org/2000/svg">
<mask id="path-1-inside-1_609_8" fill="white">
<path fill-rule="evenodd" clip-rule="evenodd" d="M0 9.67501C0 12.1797 0.951752 14.462 2.51333 16.1802C2.52058 16.1882 2.51493 16.201 2.50415 16.201C2.49324 16.201 2.48765 16.2141 2.49519 16.222L16.8434 31.2126C17.2312 31.6178 17.8763 31.6249 18.2729 31.2283L31.9045 17.5966C31.9429 17.5583 31.9844 17.5232 32.0282 17.4912C34.4359 15.7313 36 12.8858 36 9.67501C36 4.33165 31.6683 0 26.325 0C23.3873 0 20.7555 1.30926 18.9811 3.37611C18.4867 3.95197 17.5133 3.95197 17.0189 3.37611C15.2445 1.30926 12.6127 0 9.67501 0C4.33165 0 0 4.33165 0 9.67501Z"/>
</mask>
<path d="M31.9045 17.5966L34.733 20.425L31.9045 17.5966ZM32.0282 17.4912L34.3885 20.7205L32.0282 17.4912ZM16.8434 31.2126L13.9537 33.9784L16.8434 31.2126ZM18.9811 3.37611L15.9461 0.77057L18.9811 3.37611ZM17.0189 3.37611L13.9839 5.98165L17.0189 3.37611ZM2.49519 16.222L-0.394481 18.9878L2.49519 16.222ZM2.51333 16.1802L5.47341 13.4899L2.51333 16.1802ZM5.47341 13.4899C4.5548 12.4791 4 11.1465 4 9.67501H-4C-4 13.2128 -2.6513 16.4449 -0.446757 18.8705L5.47341 13.4899ZM19.733 28.4468L5.38487 13.4561L-0.394481 18.9878L13.9537 33.9784L19.733 28.4468ZM29.0761 14.7682L15.4445 28.3998L21.1013 34.0567L34.733 20.425L29.0761 14.7682ZM32 9.67501C32 11.5555 31.0894 13.2227 29.6678 14.2618L34.3885 20.7205C37.7824 18.2399 40 14.2162 40 9.67501H32ZM26.325 4C29.4592 4 32 6.54079 32 9.67501H40C40 2.12251 33.8775 -4 26.325 -4V4ZM22.0161 5.98165C23.0629 4.76221 24.6028 4 26.325 4V-4C22.1719 -4 18.448 -2.14368 15.9461 0.77057L22.0161 5.98165ZM9.67501 4C11.3972 4 12.937 4.76221 13.9839 5.98165L20.0539 0.770571C17.552 -2.14368 13.8281 -4 9.67501 -4V4ZM4 9.67501C4 6.54079 6.54079 4 9.67501 4V-4C2.12251 -4 -4 2.12251 -4 9.67501H4ZM34.733 20.425C34.6141 20.5439 34.4969 20.6413 34.3885 20.7205L29.6678 14.2618C29.4719 14.405 29.2717 14.5726 29.0761 14.7682L34.733 20.425ZM13.9537 33.9784C15.8927 36.0043 19.1184 36.0396 21.1013 34.0567L15.4445 28.3998C16.6342 27.2101 18.5696 27.2313 19.733 28.4468L13.9537 33.9784ZM15.9461 0.77057C16.5589 0.0567922 17.3632 -0.191992 18 -0.191993C18.6368 -0.191993 19.4411 0.0567906 20.0539 0.770571L13.9839 5.98165C16.0745 8.4168 19.9255 8.41679 22.0161 5.98165L15.9461 0.77057ZM2.50415 12.201C-1.02871 12.201 -2.83674 16.4362 -0.394481 18.9878L5.38487 13.4561C7.81204 15.992 6.01518 20.201 2.50415 20.201V12.201ZM-0.446757 18.8705C-2.76797 16.3166 -0.967784 12.201 2.50415 12.201V20.201C5.99763 20.201 7.80912 16.0598 5.47341 13.4899L-0.446757 18.8705Z" fill="#FF6158" mask="url(#path-1-inside-1_609_8)"/>
</svg>
