<svg width="34" height="29" viewBox="0 0 34 29" fill="none" xmlns="http://www.w3.org/2000/svg">
<path fill-rule="evenodd" clip-rule="evenodd" d="M0 8.89064C0 11.1922 0.874567 13.2895 2.30951 14.8684C2.31615 14.8757 2.31097 14.8874 2.30109 14.8874C2.29109 14.8874 2.28596 14.8994 2.29288 14.9067L15.4206 28.6222C15.8084 29.0274 16.4535 29.0344 16.8501 28.6378L29.3128 16.1751C29.3512 16.1367 29.3927 16.1016 29.4365 16.0696C31.6463 14.4521 33.0815 11.839 33.0815 8.89064C33.0815 3.98048 29.101 0 24.1908 0C21.5404 0 19.1609 1.15978 17.532 2.99952C17.0289 3.56777 16.0526 3.56777 15.5495 2.99952C13.9206 1.15978 11.5411 0 8.89064 0C3.98048 0 0 3.98048 0 8.89064Z" fill="#FF4D50"/>
</svg>
