<svg width="25" height="26" viewBox="0 0 25 26" fill="none" xmlns="http://www.w3.org/2000/svg">
<path d="M25 24V13.9406C25 13.4275 24.8028 12.934 24.4491 12.5622L12.5676 0.0710341L0.558334 12.5606C0.200095 12.9332 0 13.43 0 13.9469V24C0 25.1046 0.895431 26 2 26H7.51087C8.61544 26 9.51087 25.1046 9.51087 24V19.3804C9.51087 18.2759 10.4063 17.3804 11.5109 17.3804H13.4891C14.5937 17.3804 15.4891 18.2759 15.4891 19.3804V24C15.4891 25.1046 16.3846 26 17.4891 26H23C24.1046 26 25 25.1046 25 24Z" fill="#FCB01B"/>
</svg>
